<svg xmlns="http://www.w3.org/2000/svg" width="26.102" height="23.362" viewBox="0 0 26.102 23.362">
  <g id="Cart_Icon" data-name="Cart Icon" transform="translate(0 0)">
    <path id="Path_5" data-name="Path 5" d="M952.061,886.33a.744.744,0,0,1-.717-.549l-3.874-14.289-3.617-.368a.743.743,0,0,1,.15-1.479l4.126.42a.743.743,0,0,1,.642.545l4.007,14.782a.744.744,0,0,1-.718.938Z" transform="translate(-943.185 -869.641)" fill="#fff"/>
    <path id="Line_1" data-name="Line 1" d="M.144,9.628a.751.751,0,0,1-.084,0A.743.743,0,0,1-.6,8.8L.384.061A.743.743,0,0,1,1.861.226L.882,8.967A.743.743,0,0,1,.144,9.628Z" transform="translate(24.236 5.425)" fill="#fff"/>
    <path id="Line_2" data-name="Line 2" d="M.142,2.376A.743.743,0,0,1,.07.893L14.985-.6A.743.743,0,0,1,15.133.883L.217,2.372C.192,2.375.167,2.376.142,2.376Z" transform="translate(9.173 14.215)" fill="#fff"/>
    <path id="Line_3" data-name="Line 3" d="M19.025,1.586H19L.116.886A.743.743,0,1,1,.171-.6L19.052.1a.743.743,0,0,1-.027,1.486Z" transform="translate(6.334 4.726)" fill="#fff"/>
    <circle id="Ellipse_1" data-name="Ellipse 1" cx="2.475" cy="2.475" r="2.475" transform="translate(8.054 18.411)" fill="#fff"/>
    <circle id="Ellipse_2" data-name="Ellipse 2" cx="2.475" cy="2.475" r="2.475" transform="translate(18.685 18.411)" fill="#fff"/>
  </g>
</svg>
