<svg xmlns="http://www.w3.org/2000/svg" width="79.008" height="24.513" viewBox="0 0 79.008 24.513">
  <path id="Fitwhey_Logo" data-name="Fitwhey Logo" d="M610.393,868.261l-9.745,18.062h-.171l-5.259-9.9q-4.417-8.111-4.52-8.163h-8.456l-.051.052,4.915,8.92-4.864,9.09h-.171l-5.276-9.9q-4.4-8.111-4.52-8.163h-6.4v0H539.964v24.513h7.47V884.3h17.545v-5.639H547.434v-4.633h19.494l7.032,12.712a66.162,66.162,0,0,0,3.368,5.963h9.658q.326-.309,4.347-7.767h.052q4.022,7.457,4.347,7.767h9.727l.069-.051,13.443-24.386Z" transform="translate(-539.964 -868.259)" fill="#fff"/>
</svg>
