<svg id="Group_23" data-name="Group 23" xmlns="http://www.w3.org/2000/svg" width="24.339" height="24.154" viewBox="0 0 24.339 24.154">
  <path id="Path_6" data-name="Path 6" d="M702.529,892.3h-7.693a1.981,1.981,0,0,1-1.978-1.979v-7.693a1.98,1.98,0,0,1,1.978-1.978h7.693a1.98,1.98,0,0,1,1.978,1.978v7.693A1.981,1.981,0,0,1,702.529,892.3Zm-7.693-10.053a.381.381,0,0,0-.381.381v7.693a.382.382,0,0,0,.381.382h7.693a.382.382,0,0,0,.381-.382v-7.693a.381.381,0,0,0-.381-.381Z" transform="translate(-692.859 -880.653)" fill="#999"/>
  <path id="Path_7" data-name="Path 7" d="M712.065,892.3h-7.693a1.981,1.981,0,0,1-1.979-1.979v-7.693a1.981,1.981,0,0,1,1.979-1.978h7.693a1.98,1.98,0,0,1,1.978,1.978v7.693A1.981,1.981,0,0,1,712.065,892.3Zm-7.693-10.053a.382.382,0,0,0-.382.381v7.693a.382.382,0,0,0,.382.382h7.693a.382.382,0,0,0,.381-.382v-7.693a.381.381,0,0,0-.381-.381Z" transform="translate(-689.704 -880.653)" fill="#999"/>
  <path id="Path_8" data-name="Path 8" d="M702.529,901.7h-7.693a1.981,1.981,0,0,1-1.978-1.979v-7.692a1.981,1.981,0,0,1,1.978-1.979h7.693a1.981,1.981,0,0,1,1.978,1.979v7.692A1.981,1.981,0,0,1,702.529,901.7Zm-7.693-10.053a.382.382,0,0,0-.381.382v7.692a.382.382,0,0,0,.381.382h7.693a.382.382,0,0,0,.381-.382v-7.692a.382.382,0,0,0-.381-.382Z" transform="translate(-692.859 -877.544)" fill="#999"/>
  <path id="Path_9" data-name="Path 9" d="M712.065,901.7h-7.693a1.981,1.981,0,0,1-1.979-1.979v-7.692a1.981,1.981,0,0,1,1.979-1.979h7.693a1.981,1.981,0,0,1,1.978,1.979v7.692A1.981,1.981,0,0,1,712.065,901.7Zm-7.693-10.053a.382.382,0,0,0-.382.382v7.692a.382.382,0,0,0,.382.382h7.693a.382.382,0,0,0,.381-.382v-7.692a.382.382,0,0,0-.381-.382Z" transform="translate(-689.704 -877.544)" fill="#999"/>
</svg>
