<svg xmlns="http://www.w3.org/2000/svg" xmlns:xlink="http://www.w3.org/1999/xlink" width="30.668" height="23.484" viewBox="0 0 30.668 23.484">
  <defs>
    <clipPath id="clip-path">
      <rect id="Rectangle_254" data-name="Rectangle 254" width="30.668" height="23.485" fill="#999"/>
    </clipPath>
  </defs>
  <g id="Group_233" data-name="Group 233" transform="translate(0 0)">
    <g id="Group_232" data-name="Group 232" transform="translate(0 0)" clip-path="url(#clip-path)">
      <path id="Path_95" data-name="Path 95" d="M23.332,4.216h-6.98a.727.727,0,1,0,0,1.454h6.98a.727.727,0,0,0,0-1.454" transform="translate(2.686 0.725)" fill="#999"/>
      <path id="Path_96" data-name="Path 96" d="M23.332,7.726h-6.98a.727.727,0,1,0,0,1.454h6.98a.727.727,0,0,0,0-1.454" transform="translate(2.686 1.329)" fill="#999"/>
      <path id="Path_97" data-name="Path 97" d="M24.786,11.235H7.9a.727.727,0,0,0,0,1.454h16.89a.727.727,0,0,0,0-1.454" transform="translate(1.233 1.932)" fill="#999"/>
      <path id="Path_98" data-name="Path 98" d="M24.786,14.745H7.9a.727.727,0,0,0,0,1.454h16.89a.727.727,0,0,0,0-1.454" transform="translate(1.233 2.535)" fill="#999"/>
      <path id="Path_99" data-name="Path 99" d="M6.8,9.137a1.6,1.6,0,0,0,1.139,1.424,1.872,1.872,0,0,0,.565.056h5.478a1.636,1.636,0,0,0,1.14-.457,2.153,2.153,0,0,0,.457-1.729c0-1.044.033-2.1,0-3.14a1.578,1.578,0,0,0-1.2-1.459,2.217,2.217,0,0,0-.527-.042H8.394a1.63,1.63,0,0,0-1.14.457A2.147,2.147,0,0,0,6.8,5.975V9.06a.571.571,0,0,0,0,.077m1.477-.009-.015-.015h0l.015.016M8.256,9.1l0,0h0l0,.006M14,9.173l.054-.013L14,9.173m.07-3.927c.016,0,.016,0,0,0m-5.514,0h5.476l.038.013.022.015.018.02.018.035v.02c0,.114,0,.226,0,.34V9.071l0,.016,0,.008-.009.016,0,.008-.012.013-.007.008-.014.008-.009,0a.609.609,0,0,1-.081.009H8.344l-.016,0-.006,0-.029-.019-.038-.05h0l0-.011V5.338l0-.016,0-.009L8.266,5.3l0-.008.012-.013.008-.008L8.3,5.259l.011,0a.588.588,0,0,1,.081-.009Zm-.225,0,.054-.013-.054.013" transform="translate(1.169 0.652)" fill="#999"/>
      <path id="Path_100" data-name="Path 100" d="M29.942,0H4.965a.737.737,0,0,0-.727.734V4.859H.727A.737.737,0,0,0,0,5.591V20.951a2.617,2.617,0,0,0,1.995,2.412,2.991,2.991,0,0,0,.953.113H26.332c.526,0,1.058.02,1.587,0a2.912,2.912,0,0,0,2.5-1.92,4.071,4.071,0,0,0,.245-1.57V.728A.733.733,0,0,0,29.942,0M5.481.223l0,0,0,0m.211.511a.521.521,0,0,0,0-.074.521.521,0,0,1,0,.074m-.008-.1c0-.015,0-.03-.007-.046,0,.015,0,.03.007.046M5.668.553,5.659.518l.008.035M5.644.478,5.635.451l.009.027m-.03-.07L5.6.388l.009.02M5.575.341,5.567.328l.008.013M5.531.279l0-.007,0,.007M3.79,23.324l-.012,0,.012,0m.975-.527,0,0,0,0m-.073.057v0m-.308.206,0,0,0,0M4.3,23.1l-.007,0,.007,0m-1.521-1.1C2.721,22.009,2.66,22,2.6,22c-.009,0-.023-.006-.046-.009a2.306,2.306,0,0,1-.339-.094l-.028-.009-.009,0c-.05-.023-.1-.052-.149-.079s-.094-.057-.141-.088l-.033-.023-.033-.028A1.527,1.527,0,0,1,1.66,21.5s-.049-.066-.063-.087a1.515,1.515,0,0,1-.075-.135l-.006-.011v0c-.018-.048-.03-.1-.043-.148,0-.016-.011-.053-.015-.079s0-.059,0-.088V6.325H4.238v14.56c0,.04,0,.079,0,.118,0,.014,0,.042-.006.066s-.015.066-.023.1a.525.525,0,0,1-.019.061c0,.012-.03.075-.042.1a1.385,1.385,0,0,1-.08.134l-.011.018h0a1.642,1.642,0,0,1-.206.207c.012-.011-.069.05-.09.064-.047.03-.095.057-.144.084-.033.019-.067.035-.1.052.068-.033-.066.023-.091.032a2.122,2.122,0,0,1-.27.071c-.012,0-.1.016-.121.018-.083.007-.166.007-.248.006m1.438,1.139,0,0,0,0m-.26.115h0m-.084.032-.011,0,.011,0m-.18.059h0m-.277.067h0m-.089.015-.015,0,.015,0m-.093.014-.013,0,.013,0m-.1.012h0M29.214,5.432V20.319c0,.062,0,.123-.008.185l0,.034v.013a3.068,3.068,0,0,1-.081.345c-.016.056-.036.11-.056.165l0,.014c-.012.025-.025.049-.036.073a2.422,2.422,0,0,1-.166.288c-.008.012-.034.046-.053.069s-.046.054-.07.081a1.991,1.991,0,0,1-.169.161s-.067.05-.087.064c-.057.038-.118.071-.179.1-.013.006-.036.018-.06.027s-.067.023-.1.034-.1.026-.15.036l-.018,0a1.73,1.73,0,0,1-.173.007H5.408a2.406,2.406,0,0,0,.285-1.149V1.456H29.214ZM5.095,22.478h0" transform="translate(0 0)" fill="#999"/>
    </g>
  </g>
</svg>
