<svg xmlns="http://www.w3.org/2000/svg" width="17.951" height="24.392" viewBox="0 0 17.951 24.392">
  <path id="Path_6" data-name="Path 6" d="M649.216,906.3a.779.779,0,0,1-.779-.779c0-10.539-3.017-11.56-6.379-11.725a.779.779,0,0,1-.122-1.54,4.443,4.443,0,1,0-1.836,0,.779.779,0,0,1-.122,1.54c-3.361.165-6.377,1.186-6.377,11.725a.779.779,0,0,1-1.558,0c0-5.173.7-8.551,2.2-10.63a5.845,5.845,0,0,1,2.6-2.056q.245-.1.505-.183a6.008,6.008,0,1,1,7.347,0q.261.083.505.183a5.847,5.847,0,0,1,2.6,2.056c1.5,2.079,2.2,5.456,2.2,10.63A.779.779,0,0,1,649.216,906.3Z" transform="translate(-632.044 -881.912)" fill="#999"/>
</svg>
