<svg xmlns="http://www.w3.org/2000/svg" width="24.422" height="24.392" viewBox="0 0 24.422 24.392">
  <path id="Path_6" data-name="Path 6" d="M592.9,881.185h0l8.539.058a1.3,1.3,0,0,1,1.293,1.3l-.029,8.424a1.429,1.429,0,0,1-.333.911.677.677,0,0,1-.054.06l-13.335,13.247-.011.012a1.316,1.316,0,0,1-1.854,0L578.7,896.8a1.316,1.316,0,0,1,0-1.856l13.259-13.374a.706.706,0,0,1,.077-.067A1.445,1.445,0,0,1,592.9,881.185Zm8.406,1.487-8.369-.057-.009.006-13.137,13.251,8.256,8.228,13.23-13.142h0Zm-4.122,1.942a2.258,2.258,0,0,1,1.511.6.685.685,0,0,1,.068.067,2.2,2.2,0,0,1,0,3.027.717.717,0,0,1-.068.067,2.2,2.2,0,0,1-3.023,0,.714.714,0,0,1-.068-.068,2.2,2.2,0,0,1,0-3.026.708.708,0,0,1,.068-.068A2.259,2.259,0,0,1,597.181,884.614Zm.535,1.647a.769.769,0,1,0,.216.535A.837.837,0,0,0,597.716,886.261Z" transform="translate(-578.312 -881.185)" fill="#999"/>
</svg>
