<svg xmlns="http://www.w3.org/2000/svg" width="26.05" height="26.352" viewBox="0 0 26.05 26.352">
  <path id="Path_6" data-name="Path 6" d="M603.573,868.695H598.1a1.443,1.443,0,0,1-1.442-1.442v-5.341l-4.684.034v5.307a1.443,1.443,0,0,1-1.441,1.442H585.3a1.445,1.445,0,0,1-1.41-1.442V856.885H582.27a.784.784,0,0,1-.721-.473c-.212-.49.072-.827.589-1.437.3-.355.746-.862,1.324-1.506.967-1.077,2.323-2.558,4.03-4.4,2.9-3.137,5.861-6.282,5.891-6.313a.761.761,0,0,1,.055-.053,1.446,1.446,0,0,1,.95-.357,1.353,1.353,0,0,1,.964.393l.016.016c.03.032,3.034,3.214,5.993,6.37,1.739,1.854,3.122,3.336,4.112,4.406.589.637,1.044,1.133,1.353,1.475.172.19.3.333.386.436a.88.88,0,0,1,.25.976.78.78,0,0,1-.715.47h-1.732v10.368A1.443,1.443,0,0,1,603.573,868.695Zm-5.366-1.553h5.253V856.108a.777.777,0,0,1,.777-.777h.786c-2.169-2.359-7.09-7.6-10.647-11.367-3.4,3.621-8.418,9.012-10.495,11.367h.79a.777.777,0,0,1,.777.777v11.033h4.969v-5.967a.777.777,0,0,1,.771-.777l6.237-.045a.777.777,0,0,1,.782.777Z" transform="translate(-581.479 -842.343)" fill="#fff"/>
</svg>
