<svg id="Search_Icon" data-name="Search Icon" xmlns="http://www.w3.org/2000/svg" width="21.12" height="21.224" viewBox="0 0 21.12 21.224">
  <path id="Ellipse_1" data-name="Ellipse 1" d="M8.214-.6A8.814,8.814,0,1,1-.6,8.214,8.824,8.824,0,0,1,8.214-.6Zm0,16.18A7.366,7.366,0,1,0,.848,8.214,7.375,7.375,0,0,0,8.214,15.58Z" transform="translate(0.6 0.6)"/>
  <path id="Line_1" data-name="Line 1" d="M5.561,6.406a.842.842,0,0,1-.6-.247L-.453.742A.844.844,0,0,1,.742-.453L6.159,4.964a.844.844,0,0,1-.6,1.442Z" transform="translate(14.714 14.818)"/>
</svg>
